<svg height="64" viewBox="0 0 64 64.000001" width="64" xmlns="http://www.w3.org/2000/svg"><path d="m8.426868-.000002h47.146264c4.639927 0 8.426868 3.76824 8.426868 8.42653v47.149091c0 4.640059-3.767941 8.424383-8.426868 8.424383h-47.146264c-4.639927-.0021-8.426868-3.766093-8.426868-8.425455v-47.170539c0-4.63684 3.764941-8.40401 8.426868-8.40401" fill="#60c575" stroke-width="1.035535"/><path d="m206.05289 158.82072c-7.8-.4-16 8.8-24.3 27.1-2.7 5.9-5.1 12.3-7.1 18-8.9 1.7-14.7 3.2-15 3.3-1.9.4-3 2.4-2.6 4.3.4 1.6 1.9 2.6 3.4 2.6.3 0 .6-.1.9-.1.1 0 4.2-1.1 10.7-2.4-2.4 7.5-3.8 12.8-3.9 13.3-.5 1.9.6 3.8 2.5 4.3.3.1.6.1.9.1 1.5 0 3-1 3.4-2.6 0-.1 1.9-7.3 5-16.6 1.5-.3 3.1-.6 4.8-.8 11-1.9 19.4-2.7 23.8-3.1-1.1 8.5-2.3 15.7-2.3 15.8-.3 1.9 1 3.7 2.9 4s3.7-1 4-2.9c0-.1 2.1-13.5 3.5-25.2 1.5-12.3 1.2-28.9-4.5-35.7-1.5-2.2-3.6-3.3-6.1-3.4zm-22.3 43.5-1 .2c1.7-4.5 3.5-9.2 5.5-13.7 7.8-17.3 14.3-23.2 17.4-23 .2 0 .6.1 1.3.8 3.3 3.9 4.5 16.9 2.9 30.3-.1.7-.2 1.4-.3 2-4 .4-13.1 1.3-25.8 3.4z" fill="#fff" transform="matrix(.60944313 0 0 .60944313 -86.085688 -88.271257)"/></svg>